<?xml version="1.0" encoding="utf-8"?>
<!-- Generator: Adobe Illustrator 24.2.0, SVG Export Plug-In . SVG Version: 6.00 Build 0)  -->
<svg version="1.1" id="Layer_1" xmlns="http://www.w3.org/2000/svg" xmlns:xlink="http://www.w3.org/1999/xlink" x="0px" y="0px"
	 viewBox="0 0 512 512" style="enable-background:new 0 0 512 512;" xml:space="preserve">
<style type="text/css">
	.st0{fill:#FFDFBA;}
	.st1{fill:#F4C708;}
	.st2{fill:#42434D;}
	.st3{fill:#FFEBD2;}
	.st4{fill:#FFF3E4;}
	.st5{fill:#FFD6A6;}
	.st6{fill:#F9F900;}
	.st7{fill:#EADE06;}
	.st8{fill:#4D4E59;}
</style>
<path class="st0" d="M420.2,453.1v41.9c0,4.7-3.8,8.5-8.5,8.5H100.3c-4.7,0-8.5-3.8-8.5-8.5v-41.9c0-43.9,35.6-79.5,79.6-79.5
	c15.5,0,29.2-8,37.1-20.1c7.9-12.2,7.1-22.7,7.1-31.3l0.2-0.4c-38.3-15.8-65.2-53.6-65.2-97.6v-3.3c-15.2,0-26.7-12-26.7-26.2v-44.3
	c-0.3-15.4,0.4-69.9,39.7-107.8C209.1-1.5,281.6,2.1,334,25.7c1.7,0.8,1.7,3.2-0.1,3.9l-13.7,5.6c-2,0.8-1.6,3.9,0.6,4.1l6.6,0.7
	c31.8,3.4,61.4,20.7,79.7,49.4c0.5,0.8,0.4,2-0.3,2.6c-11.3,12-17.6,27.8-17.6,44.3v58.2c0,14.5-11.7,26.2-26.2,26.2h-1.6v3.3
	c0,44-26.9,81.7-65.2,97.6l0.2,0.4c0,8.3-0.9,19,7.1,31.3c7.9,12.1,21.5,20.1,37.1,20.1C384.6,373.5,420.2,409.1,420.2,453.1
	L420.2,453.1z"/>
<path class="st1" d="M420.2,453.1v41.9c0,4.7-3.8,8.5-8.5,8.5H100.3c-4.7,0-8.5-3.8-8.5-8.5v-41.9c0-43.9,35.6-79.5,79.5-79.5
	c15.5,0,29.2-8,37.1-20.1c27.5,23.5,67.8,23.5,95.2,0c7.9,12.1,21.5,20.1,37.1,20.1C384.6,373.5,420.2,409.1,420.2,453.1
	L420.2,453.1z"/>
<path class="st2" d="M407.2,89.5c0.5,0.8,0.4,2-0.3,2.6c-11.3,12-17.6,27.8-17.6,44.3v58.2c0,13.2-10,26.2-27.7,26.2V155
	c0-28.3-22.9-51.2-51.2-51.2H201.6c-28.3,0-51.2,22.9-51.2,51.2v65.9c-15.2,0-26.7-12-26.7-26.2v-44.3
	c-0.3-15.4,0.4-69.9,39.7-107.8C209.1-1.5,281.6,2.1,334,25.7c1.7,0.8,1.7,3.2-0.1,3.9l-13.7,5.6c-2,0.8-1.6,3.9,0.6,4.1l6.6,0.7
	C359.3,43.5,388.9,60.7,407.2,89.5z"/>
<path class="st3" d="M361.6,224.2c0,58.3-47.3,105.6-105.6,105.6c-54.9,0-105.6-42.7-105.6-108.9V155c0-28.3,22.9-51.2,51.2-51.2
	h108.8c28.3,0,51.2,22.9,51.2,51.2V224.2z"/>
<path class="st4" d="M232.1,292.4c17.4,10.9,3.7,37.5-15.3,29.9c-39.1-15.7-66.3-53.8-66.3-98V155c0-10.8,3.3-20.7,9-29
	c6.9-10.1,23-5.6,23,7.6v69.2C182.4,241.8,202.9,274.1,232.1,292.4L232.1,292.4z"/>
<path class="st5" d="M297.7,339.7c-26.3,11-55.2,11.9-83.5,0c1.4-6,1.2-9.9,1.2-17.5l0.2-0.4c25.7,10.7,55,10.7,80.7,0l0.2,0.4
	C296.5,329.8,296.3,333.7,297.7,339.7L297.7,339.7z"/>
<path class="st6" d="M214.3,399.3c-3.9,1.2-8.2,1.9-12.7,2c-44,0.4-80,35.2-80,79.3v8c0,8.2-6.7,14.9-14.9,14.9h-6.4
	c-4.7,0-8.5-3.8-8.5-8.5v-41.9c0-43.9,35.6-79.5,79.5-79.5c15.5,0,29.2-8,37.1-20.1c3.2,2.7,6.6,5.1,10.1,7.3
	C234.3,370.1,231.8,393.8,214.3,399.3L214.3,399.3z"/>
<path class="st7" d="M297.7,399.3c3.9,1.2,8.2,1.9,12.7,2c44,0.4,80,35.2,80,79.3v8c0,8.2,6.7,14.9,14.9,14.9h6.4
	c4.7,0,8.5-3.8,8.5-8.5v-41.9c0-43.9-35.6-79.5-79.5-79.5c-15.5,0-29.2-8-37.1-20.1c-3.2,2.7-6.6,5.1-10.1,7.3
	C277.7,370.1,280.2,393.8,297.7,399.3L297.7,399.3z"/>
<path class="st8" d="M334,29.6c-12.5,5.2-14.3,6.3-18.7,5.6c-70-10.9-131.5,18.1-152.4,86.2v0c-7.8,9-12.5,20.7-12.5,33.5v40
	c0,17.3-26.7,18.5-26.7-0.3v-44.3c-0.3-15.4,0.4-69.9,39.7-107.8C209.1-1.5,281.6,2.1,334,25.7C335.8,26.5,335.7,28.9,334,29.6
	L334,29.6z"/>
<path d="M428.8,453.1v50.4c0,4.7-3.8,8.5-8.5,8.5s-8.5-3.8-8.5-8.5v-50.4c0-39.2-31.8-71-71-71c-18.6,0-35.4-9.5-45.1-25.3
	c-2.5-4-1.2-9.3,2.8-11.7c4-2.5,9.3-1.2,11.7,2.8c6.5,10.7,17.9,17.1,30.5,17.1C389.4,365,428.8,404.4,428.8,453.1L428.8,453.1z
	 M279.9,367.5c1,4.6-1.9,9.1-6.5,10.2c-22.5,4.9-45.3,0-63.5-12.4c-18,19.3-41.8,16.8-38.6,16.8c-39.2,0-71,31.8-71,71v50.4
	c0,4.7-3.8,8.5-8.5,8.5c-4.7,0-8.5-3.8-8.5-8.5v-50.4c0-48.7,39.4-88.1,88.1-88.1c19.7,0,35.7-15.9,35.7-35.6v-2.2
	c-37.2-17.8-63.4-55.2-65-98.8c-15.3-3.7-26.7-17.4-26.7-33.7v-44.2c-0.5-21.7,2.7-75.9,42.3-114c48.8-47.1,127.1-44.1,184.7-16.4
	c5.6,2.7,6.5,10.3,1.8,14.2c29.2,7.1,54.3,25,70.5,50.7c0.8,1.3,2.4,3.4,2,6.7c-0.2,2.1-0.9,3.8-2.4,5.4
	c-10.4,10.5-16.1,24.5-16.1,39.4v58.2c0,4.7-3.8,8.5-8.5,8.5s-8.5-3.8-8.5-8.5v-58.2c0-17.1,5.8-33.3,16.6-46.4
	c-16.4-23.4-41.9-38.4-70.7-41.5l-15-1.6c-8.8-0.9-10.5-13-2.3-16.4l6.8-2.8c-88.8-31-183.8,3.4-183.8,122.6v44.3
	c0,6.8,3.9,12.7,9.6,15.6V155c0-32.9,26.8-59.7,59.7-59.7h108.8c32.9,0,59.7,26.8,59.7,59.7v69.9c0,74.2-72.5,130.6-146.3,108.8
	c-0.5,6.1-2,12-4.5,17.4c14.4,9.9,32.5,13.8,50.4,9.9C274.3,360,278.9,362.9,279.9,367.5L279.9,367.5z M256,321.2
	c53.5,0,97.1-43.5,97.1-97.1V155c0-23.5-19.1-42.7-42.7-42.7H201.6c-23.5,0-42.7,19.1-42.7,42.7v69.2
	C158.9,277.7,202.5,321.2,256,321.2L256,321.2z M342.4,468.3h-25.6c-4.7,0-8.5,3.8-8.5,8.5s3.8,8.5,8.5,8.5h25.6
	c4.7,0,8.5-3.8,8.5-8.5S347.1,468.3,342.4,468.3z"/>
</svg>
